<?xml version="1.0" standalone="no"?>
<!DOCTYPE svg PUBLIC "-//W3C//DTD SVG 20010904//EN"
 "http://www.w3.org/TR/2001/REC-SVG-20010904/DTD/svg10.dtd">
<svg version="1.0" xmlns="http://www.w3.org/2000/svg"
 width="98.000000pt" height="98.000000pt" viewBox="0 0 98.000000 98.000000"
 preserveAspectRatio="xMidYMid meet">
<metadata>
Created by potrace 1.14, written by Peter Selinger 2001-2017
</metadata>
<g transform="translate(0.000000,98.000000) scale(0.100000,-0.100000)"
fill="#000000" stroke="none">
<path d="M408 947 c-50 -25 -78 -72 -78 -130 0 -54 25 -99 53 -95 18 2 22 9
20 33 -6 90 -5 99 17 117 15 12 39 18 70 18 41 0 52 -4 69 -26 23 -30 26 -55
10 -85 -14 -27 -2 -59 21 -59 50 0 73 125 33 178 -51 68 -137 88 -215 49z"/>
<path d="M149 868 c-33 -11 -46 -40 -44 -103 3 -72 3 -72 24 -78 30 -7 41 12
41 70 l0 52 57 3 c47 2 58 6 61 22 2 10 -1 23 -6 28 -14 14 -99 17 -133 6z"/>
<path d="M694 863 c-30 -31 -10 -51 56 -55 l55 -3 0 -47 c1 -57 21 -85 48 -66
27 20 26 133 -1 161 -26 25 -135 32 -158 10z"/>
<path d="M93 638 c-19 -5 -44 -24 -60 -45 -37 -48 -41 -130 -11 -185 36 -64
140 -88 206 -48 28 17 31 23 22 41 -9 17 -17 19 -43 13 -81 -18 -111 -7 -125
46 -21 84 27 135 108 114 43 -12 60 -4 60 28 0 35 -89 55 -157 36z"/>
<path d="M755 632 c-22 -9 -35 -21 -35 -33 0 -23 31 -41 51 -28 25 15 85 10
102 -9 26 -28 31 -74 13 -115 -17 -42 -38 -48 -117 -32 -28 5 -38 3 -42 -9
-15 -37 29 -66 100 -66 76 0 129 45 144 123 23 131 -90 219 -216 169z"/>
<path d="M444 574 c-72 -35 -71 -134 1 -169 49 -23 104 -3 128 47 16 33 17 40
3 71 -23 56 -79 77 -132 51z"/>
<path d="M113 288 c-5 -7 -9 -42 -8 -77 1 -53 5 -67 24 -82 30 -25 132 -27
152 -3 21 25 -1 49 -47 50 -21 1 -44 2 -51 3 -7 1 -13 23 -15 59 -3 49 -6 57
-24 60 -11 2 -25 -3 -31 -10z"/>
<path d="M812 283 c-5 -10 -8 -35 -6 -55 3 -45 -2 -48 -61 -52 -54 -3 -75 -18
-59 -44 8 -12 27 -18 64 -20 61 -4 107 12 115 39 8 25 8 126 0 139 -10 16 -44
12 -53 -7z"/>
<path d="M344 223 c-19 -44 -14 -111 10 -148 39 -59 167 -81 224 -38 48 36 65
69 65 123 -1 61 -25 103 -56 98 -17 -2 -21 -9 -19 -28 9 -81 6 -102 -17 -121
-30 -25 -101 -25 -131 -1 -24 19 -31 85 -11 105 15 15 -5 47 -30 47 -14 0 -25
-12 -35 -37z"/>
</g>
</svg>
